<?xml version="1.0" encoding="UTF-8" standalone="no"?>
<!-- Created with Inkscape (http://www.inkscape.org/) -->
<svg
   xmlns:svg="http://www.w3.org/2000/svg"
   xmlns="http://www.w3.org/2000/svg"
   version="1.0"
   width="758"
   height="758"
   id="svg2">
  <defs
     id="defs4" />
  <g
     style="display:inline"
     id="layer2">
    <path
       d="M 84.985266,25.055204 L 672.89738,25.055204 C 706.13738,25.055204 732.89738,51.815204 732.89738,85.055204 L 732.89738,672.98453 C 732.89738,706.22453 706.13738,732.98453 672.89738,732.98453 L 84.985266,732.98453 C 51.745266,732.98453 24.985266,706.22453 24.985266,672.98453 L 24.985266,85.055204 C 24.985266,51.815204 51.745266,25.055204 84.985266,25.055204 z "
       style="fill:none;fill-opacity:1;stroke:#365453;stroke-width:50.00000381;stroke-linejoin:round;stroke-miterlimit:4;stroke-opacity:1"
       id="rect2193" />
  </g>
  <g
     style="display:inline"
     id="layer3">
    <path
       d="M 60.58363,474.53989 C 242.5551,642.14191 503.40533,653.42349 697.92342,472.61547 L 654.73086,429.28035 C 649.82653,435.39016 644.72079,439.68734 639.54931,443.39277 L 406.2667,192.50527 L 429.35976,155.44234 L 386.30974,120.37511 L 336.41734,143.75327 L 353.8084,193.93077 L 119.10029,445.17464 C 113.78925,440.61518 108.63607,435.73998 103.70492,430.42075 L 60.58363,474.53989 z "
       style="color:#000000;fill:#393633;fill-opacity:1;fill-rule:evenodd;stroke:#393633;stroke-width:0.70866144;stroke-linecap:butt;stroke-linejoin:miter;marker:none;marker-start:none;marker-mid:none;marker-end:none;stroke-miterlimit:4;stroke-dashoffset:0;stroke-opacity:1;visibility:visible;display:inline;overflow:visible;enable-background:accumulate"
       id="path8018" />
  </g>
  <g
     style="display:inline"
     id="layer7">
    <path
       d="M 230.70798,361.75849 C 249.36367,376.44053 271.34303,389.20565 298.5867,398.5202 L 264.82554,524.29149 C 216.42305,510.43981 175.57458,487.70724 138.43723,460.44468 L 230.70798,361.75849 z "
       style="color:#000000;fill:#ffffff;fill-opacity:1;fill-rule:evenodd;stroke:#393633;stroke-width:0.70866144;stroke-linecap:butt;stroke-linejoin:miter;marker:none;marker-start:none;marker-mid:none;marker-end:none;stroke-miterlimit:4;stroke-dashoffset:0;stroke-opacity:1;visibility:visible;display:inline;overflow:visible;enable-background:accumulate"
       id="path9961" />
    <path
       d="M 288.8032,531.08775 C 343.10827,543.74671 402.66272,546.69635 468.45811,531.05359 L 433.96004,403.19149 C 396.58456,413.44668 359.29562,413.47059 322.45746,405.45691 L 288.8032,531.08775 z "
       style="color:#000000;fill:#ffffff;fill-opacity:1;fill-rule:evenodd;stroke:#393633;stroke-width:0.70866144;stroke-linecap:butt;stroke-linejoin:miter;marker:none;marker-start:none;marker-mid:none;marker-end:none;stroke-miterlimit:4;stroke-dashoffset:0;stroke-opacity:1;visibility:visible;display:inline;overflow:visible;enable-background:accumulate"
       id="path9963" />
    <path
       d="M 492.05853,525.00424 C 528.54792,513.49926 563.74351,500.93858 620.39361,458.73619 L 524.30014,355.66529 C 504.71158,373.05267 482.37279,386.23151 457.40852,395.55531 L 492.05853,525.00424 z "
       style="color:#000000;fill:#ffffff;fill-opacity:1;fill-rule:evenodd;stroke:#393633;stroke-width:0.70866144;stroke-linecap:butt;stroke-linejoin:miter;marker:none;marker-start:none;marker-mid:none;marker-end:none;stroke-miterlimit:4;stroke-dashoffset:0;stroke-opacity:1;visibility:visible;display:inline;overflow:visible;enable-background:accumulate"
       id="path9965" />
    <path
       d="M 415.70161,239.41119 L 507.52236,337.55373 C 490.57403,351.89965 471.58052,362.53571 451.20692,371.52873 L 415.70161,239.41119 z "
       style="color:#000000;fill:#ffffff;fill-opacity:1;fill-rule:evenodd;stroke:#393633;stroke-width:0.70866144;stroke-linecap:butt;stroke-linejoin:miter;marker:none;marker-start:none;marker-mid:none;marker-end:none;stroke-miterlimit:4;stroke-dashoffset:0;stroke-opacity:1;visibility:visible;display:inline;overflow:visible;enable-background:accumulate"
       id="path9967" />
    <path
       d="M 247.52184,343.70852 L 339.89042,244.98923 L 304.80054,375.00983 C 281.07174,366.64819 262.91616,355.27932 247.52184,343.70852 z "
       style="color:#000000;fill:#ffffff;fill-opacity:1;fill-rule:evenodd;stroke:#393633;stroke-width:0.70866144;stroke-linecap:butt;stroke-linejoin:miter;marker:none;marker-start:none;marker-mid:none;marker-end:none;stroke-miterlimit:4;stroke-dashoffset:0;stroke-opacity:1;visibility:visible;display:inline;overflow:visible;enable-background:accumulate"
       id="path9969" />
    <path
       d="M 328.90346,381.67115 C 358.26498,387.69913 389.76889,389.6862 427.48377,379.50399 L 404.48999,293.9483 L 362.16675,258.24414 L 328.90346,381.67115 z "
       style="color:#000000;fill:#ffffff;fill-opacity:1;fill-rule:evenodd;stroke:#393633;stroke-width:0.70866144;stroke-linecap:butt;stroke-linejoin:miter;marker:none;marker-start:none;marker-mid:none;marker-end:none;stroke-miterlimit:4;stroke-dashoffset:0;stroke-opacity:1;visibility:visible;display:inline;overflow:visible;enable-background:accumulate"
       id="path9971" />
    <path
       d="M 394.32126,168.93724 C 394.32126,180.51045 386.28324,189.9032 376.37924,189.9032 C 366.47525,189.9032 358.43722,180.51045 358.43722,168.93724 C 358.43722,157.36403 366.47525,147.97128 376.37924,147.97128 C 386.28324,147.97128 394.32126,157.36403 394.32126,168.93724 z "
       transform="matrix(1.2808989,0,0,1.0576923,-100.68462,-8.5368047)"
       style="fill:#ffffff;fill-opacity:1;stroke:#393633;stroke-width:0.85913795;stroke-linejoin:round;stroke-miterlimit:4;stroke-opacity:1"
       id="path9973" />
  </g>
  <g
     style="display:inline"
     id="layer4">
    <path
       d="M 321.30707,602.90588 L 438.48295,602.90588 L 438.48295,644.2453 L 321.30707,644.2453 L 321.30707,602.90588 z "
       style="fill:#1f1a17;fill-opacity:1;stroke:#1f1a17;stroke-width:1.00000012;stroke-linejoin:round;stroke-miterlimit:4;stroke-opacity:1"
       id="rect13853" />
    <path
       d="M 358.37,212.88988 L 407.54965,212.88988 L 407.54965,614.30989 L 358.37,614.30989 L 358.37,212.88988 z "
       style="fill:#1f1a17;fill-opacity:1;stroke:#1f1a17;stroke-width:1;stroke-linejoin:round;stroke-miterlimit:4;stroke-opacity:1"
       id="rect13855" />
    <path
       d="M 457.21914,174.38033 C 457.21914,209.43379 426.0605,237.88298 387.66861,237.88298 C 349.27672,237.88298 318.11808,209.43379 318.11808,174.38033 C 318.11808,139.32686 349.27672,110.87767 387.66861,110.87767 C 426.0605,110.87767 457.21914,139.32686 457.21914,174.38033 z "
       transform="matrix(0.6764923,0,0,0.7435499,119.44943,40.368231)"
       style="fill:none;fill-opacity:1;stroke:#1f1a17;stroke-width:45.1194191;stroke-linejoin:round;stroke-miterlimit:4;stroke-opacity:1;display:inline"
       id="path13857" />
  </g>
  <g
     style="display:inline"
     id="layer5">
    <path
       d="M 117.01924,303.56824 L 152.50397,303.56824 L 152.50397,430.86817 L 117.01924,430.86817 L 117.01924,303.56824 z "
       transform="matrix(0.9298939,-0.3678279,0.3677903,0.9299088,0,0)"
       style="fill:#1f1a17;fill-opacity:1;stroke:#1f1a17;stroke-width:0.99999994;stroke-linejoin:round;stroke-miterlimit:4;stroke-opacity:1"
       id="rect15802" />
  </g>
  <g
     style="display:inline"
     id="layer6">
    <path
       d="M 439.05311,255.08459 L 594.14719,255.08459 C 599.20143,255.08459 603.27037,259.15353 603.27037,264.20778 L 603.27037,299.56011 C 603.27037,304.61436 599.20143,308.6833 594.14719,308.6833 L 439.05311,308.6833 C 433.99887,308.6833 429.92993,304.61436 429.92993,299.56011 L 429.92993,264.20778 C 429.92993,259.15353 433.99887,255.08459 439.05311,255.08459 z "
       style="fill:#1f1a17;fill-opacity:1;stroke:#1f1a17;stroke-width:1;stroke-linejoin:round;stroke-miterlimit:4;stroke-opacity:1"
       id="rect16773" />
  </g>
</svg>
